<svg width="138" height="29" viewBox="0 0 138 29" fill="none" xmlns="http://www.w3.org/2000/svg">
<path d="M25.5602 15.1637L25.5784 15.1652L27.474 15.3633C27.6071 15.3777 27.7293 15.4426 27.8157 15.5442L27.8297 15.5614L27.8118 15.5704C27.9003 15.6822 27.9394 15.8253 27.9198 15.9666C27.5056 19.2594 25.945 22.3011 23.5117 24.5578C20.9869 26.8994 17.6706 28.2005 14.227 28.2005C12.5545 28.2032 10.8963 27.8953 9.3366 27.2926L9.25163 27.2594C9.12397 27.2122 9.0214 27.1152 8.9671 26.9911L8.95893 26.9713C8.90576 26.8477 8.9028 26.7087 8.95007 26.5834L9.69832 24.7579C9.79971 24.4998 10.0871 24.3698 10.3465 24.4613L10.3638 24.4677C14.1884 25.9445 18.5202 25.1127 21.526 22.3245C23.4392 20.5665 24.6728 18.1915 25.011 15.6154C25.0469 15.3494 25.2776 15.1559 25.5421 15.1629L25.5602 15.1637ZM70.3307 7.41604C71.9471 7.41604 73.2112 7.9092 74.0185 8.85632L74.0455 8.88842V8.08693C74.0564 7.86322 74.2296 7.68242 74.4507 7.66058L74.4687 7.65916H76.6255C76.8474 7.6745 77.0239 7.84916 77.0431 8.06901L77.0443 8.08693V20.0596C77.1141 21.7479 76.5952 23.4079 75.5764 24.7559C74.4147 26.1698 72.6497 26.8857 70.3307 26.8857C67.1069 26.8857 64.5628 24.846 64.144 21.9327C64.1232 21.7224 64.2514 21.5268 64.4505 21.4609L64.4682 21.4554L66.5755 20.9601C66.5865 20.9577 66.5975 20.9556 66.6087 20.9539C66.84 20.92 67.0549 21.0801 67.0888 21.3114C67.2812 22.9455 68.6858 24.1647 70.3307 24.1255C72.8226 24.1255 73.9949 22.859 74.0181 20.2122L74.0185 20.1316V19.0825C73.0844 20.1301 71.7336 20.7091 70.3307 20.6629C66.7466 20.6629 64.1486 17.8803 64.1486 14.053C64.1158 12.331 64.7221 10.6578 65.8506 9.35666C66.9967 8.09744 68.6282 7.39079 70.3307 7.41604ZM5.42034 21.9777L5.44706 21.9775L5.47388 21.9777C6.33421 21.9876 7.02691 22.6832 7.03626 23.5404L7.03633 23.5672C7.03633 23.5761 7.03623 23.5851 7.03607 23.594C7.02109 24.4717 6.29753 25.1711 5.41982 25.1562C4.54211 25.1412 3.84272 24.4177 3.85755 23.54C3.87223 22.6802 4.56685 21.9914 5.42034 21.9777ZM107.665 7.24945L107.776 7.25027C111.629 7.30348 114.016 9.98542 114.016 14.2781C114.016 14.5052 114.004 14.7322 113.98 14.958C113.96 15.1657 113.79 15.3259 113.583 15.3357L113.566 15.3362H104.407C104.463 17.2598 106.054 18.7817 107.978 18.7538C109.469 18.8475 110.829 17.8991 111.256 16.4665C111.334 16.2608 111.556 16.1502 111.765 16.2092L111.782 16.2143L113.61 16.8582C113.711 16.8907 113.794 16.9623 113.841 17.0564L113.849 17.0743C113.899 17.1735 113.908 17.2887 113.872 17.394C113.023 19.908 110.63 21.5715 107.978 21.4915C106.239 21.5088 104.565 20.8294 103.331 19.6048C101.984 18.1872 101.265 16.2865 101.336 14.3322C101.336 9.94138 104.492 7.30259 107.574 7.25025L107.665 7.24945ZM55.841 7.24946H55.8455C59.7674 7.24946 62.2034 9.94206 62.2034 14.2781C62.2031 14.5052 62.1911 14.7322 62.1673 14.958C62.1492 15.1668 61.9782 15.3281 61.7705 15.3359L61.7531 15.3362H52.5946C52.6511 17.2651 54.2494 18.7892 56.1788 18.7538C57.6712 18.8492 59.0313 17.9001 59.4568 16.4665C59.533 16.2591 59.7564 16.1477 59.9665 16.209L59.9835 16.2143L61.8116 16.8582C61.9185 16.8927 62.0054 16.9714 62.0503 17.0743C62.0931 17.1766 62.0931 17.2917 62.0503 17.394C61.2018 19.9064 58.8114 21.5695 56.1608 21.4915C54.4189 21.5112 52.7417 20.8316 51.5049 19.6048C50.1594 18.1861 49.4407 16.2862 49.5102 14.3322C49.5102 9.89703 52.7297 7.24946 55.841 7.24946ZM41.9727 7.2449C43.7333 7.2449 45.1561 7.67268 46.2098 8.51463C46.9222 9.08242 47.4502 9.84861 47.7272 10.7165L47.728 10.72C47.7642 10.8696 47.6763 11.0203 47.5303 11.0637L47.5156 11.0677L45.3318 11.7881C45.2348 11.8265 45.1269 11.8265 45.0301 11.7881C44.9474 11.7495 44.8851 11.6774 44.859 11.5901L44.8473 11.5471C44.6484 10.836 43.9981 9.69438 41.9727 9.69438C40.5319 9.69438 39.6674 10.5229 39.6674 11.3244L39.6677 11.3561C39.6785 11.8773 39.9619 12.5315 41.2046 12.7802L41.2433 12.7877L43.6478 13.238C46.3045 13.7729 47.8359 15.2169 47.8663 17.2293L47.8667 17.2904L47.8577 17.2545L47.8572 17.3155C47.8185 19.3328 45.8673 21.4554 42.2744 21.4554C38.0644 21.4554 36.4119 19.0735 36.1057 17.6687C36.0857 17.5217 36.1754 17.3829 36.3156 17.3397L36.3308 17.3354L38.5822 16.633C38.6225 16.6265 38.6635 16.6265 38.7038 16.633C38.761 16.632 38.8176 16.6442 38.8692 16.6684L38.8884 16.6781C38.9711 16.7177 39.0321 16.7919 39.0549 16.8806C39.3387 18.2315 40.5589 19.0375 42.3149 19.0375C43.9494 19.0375 44.6924 18.182 44.6924 17.4075C44.6924 16.6416 44.0449 16.0738 42.9287 15.8393L42.8913 15.8316L40.3653 15.3408C38.0103 14.895 36.5425 13.4316 36.5425 11.527C36.5425 9.20807 39.0325 7.2449 41.9727 7.2449ZM132.783 3.49419H134.751C134.983 3.50812 135.165 3.69642 135.174 3.92706L135.174 3.94443V7.64117H137.542C137.773 7.65736 137.952 7.84482 137.961 8.07373L137.962 8.09141V10.0546L137.961 10.0717C137.955 10.2918 137.78 10.4706 137.56 10.4818L137.542 10.4824H135.174V17.0518C135.174 18.1414 135.606 18.5917 136.718 18.5917C136.943 18.5878 137.169 18.5707 137.392 18.5406L137.475 18.5286C137.598 18.5079 137.723 18.5425 137.817 18.6232C137.902 18.7021 137.953 18.8105 137.961 18.9258L137.962 18.9475V20.798C137.963 20.9866 137.84 21.1537 137.66 21.2078C137.141 21.353 136.606 21.4258 136.067 21.4245L135.994 21.4239C133.644 21.4239 132.178 19.9278 132.149 17.5081L132.149 17.4345V10.5094H130.1C129.876 10.4962 129.697 10.321 129.678 10.0997L129.676 10.0816V8.10941C129.676 7.87674 129.853 7.6831 130.082 7.66053L130.1 7.65916L130.65 7.65909L130.709 7.65805C131.352 7.63958 132.34 7.37899 132.36 5.94378L132.36 5.89856V3.94443C132.359 3.71176 132.537 3.51813 132.766 3.49556L132.783 3.49419ZM94.5396 7.24746L94.5912 7.24946H94.5866C96.9047 7.24946 99.2449 8.86458 99.2914 12.392L99.2922 12.4995V20.8386C99.2816 21.0623 99.1078 21.243 98.8869 21.2649L98.8689 21.2663H96.7119C96.4886 21.2531 96.3099 21.0779 96.29 20.8566L96.2887 20.8386V12.7697L96.2883 12.7076C96.2752 11.6795 95.9258 10.0276 93.8081 10.0276C92.243 10.0276 91.1283 11.2456 91.1062 13.0175L91.1059 13.0714V20.8386C91.0953 21.0623 90.9222 21.243 90.7007 21.2649L90.6826 21.2663H88.4994C88.2753 21.2531 88.0966 21.0779 88.0773 20.8566L88.0761 20.8386V12.7697L88.0757 12.7076C88.0626 11.6795 87.7132 10.0276 85.5948 10.0276C83.9678 10.0276 82.8661 11.2367 82.8442 13.0435L82.8439 13.0984V20.8386C82.8326 21.0623 82.6595 21.243 82.4387 21.2649L82.4206 21.2663H80.2636C80.0418 21.251 79.8654 21.0763 79.8463 20.8565L79.8451 20.8386V8.0599C79.8556 7.83777 80.0265 7.65759 80.2458 7.63372L80.2636 7.63213H82.3396C82.5629 7.64529 82.7423 7.82055 82.7616 8.04186L82.7628 8.0599V8.82988C83.6965 7.80613 85.024 7.23092 86.4095 7.24946C88.0144 7.20243 89.5118 8.05087 90.2957 9.45119C91.2293 8.02481 92.8387 7.19034 94.5396 7.24746ZM126.835 8.83884C127.661 9.92742 128.088 11.2663 128.044 12.631L128.042 12.6886V20.8386C128.031 21.0607 127.86 21.2409 127.641 21.2648L127.623 21.2663H125.44C125.216 21.2531 125.037 21.0779 125.017 20.8566L125.016 20.8386V13.1254C125.016 11.1082 124.066 10.0816 122.265 10.0816C121.469 10.0559 120.709 10.4103 120.216 11.0362C119.739 11.7232 119.493 12.5431 119.512 13.378L119.514 13.4271V20.8386C119.503 21.0623 119.329 21.243 119.109 21.2649L119.091 21.2663H116.911C116.688 21.2531 116.508 21.0779 116.489 20.8566L116.488 20.8386V8.05087C116.499 7.82716 116.672 7.64642 116.893 7.62452L116.911 7.62309H119.041C119.263 7.63843 119.439 7.81317 119.459 8.03295L119.46 8.05087V8.95144C120.373 7.84459 121.744 7.21741 123.179 7.24946C124.577 7.18968 125.925 7.77578 126.835 8.83884ZM1.33586 15.71H16.8387C17.1236 15.7124 17.3537 15.9405 17.3609 16.2232L17.361 16.2413V18.182C17.3634 18.4669 17.1392 18.7009 16.8567 18.7128L16.8386 18.7133H1.33586C1.05092 18.7109 0.820851 18.4827 0.813538 18.2001V18.182V16.2413V16.2232C0.820698 15.9467 1.0411 15.7224 1.31736 15.7105L1.33586 15.71ZM70.7045 10.1086C68.5792 10.1086 67.2284 11.6216 67.2284 14.053C67.2284 16.4845 68.5612 17.9928 70.7045 17.9928C72.7487 17.9928 74.1265 16.4079 74.1265 14.053C74.1265 11.6935 72.7487 10.1086 70.7045 10.1086ZM52.6905 12.7394L52.6847 12.7877H59.092C58.936 11.076 57.7297 10.0086 55.923 9.9874L55.8681 9.98708C54.2761 9.96119 52.9204 11.1256 52.6969 12.6918L52.6905 12.7394ZM104.521 12.7394L104.515 12.7877H110.923C110.767 11.076 109.56 10.0086 107.753 9.9874L107.699 9.98708C106.107 9.96119 104.751 11.1256 104.527 12.6918L104.521 12.7394ZM18.7793 0.900594C18.9135 0.949017 19.0224 1.04972 19.081 1.17978C19.1348 1.31107 19.1348 1.45827 19.081 1.58948L18.4056 3.39062C18.312 3.65768 18.02 3.79862 17.7527 3.70579C14.2144 2.47105 10.2882 3.1726 7.3965 5.55636C5.59436 7.0648 4.31475 9.10404 3.74031 11.3828C3.68085 11.613 3.47364 11.7739 3.23601 11.7746H3.11893L1.2638 11.3289C1.12549 11.2963 1.00671 11.2084 0.935116 11.0857H0.92608C0.851013 10.963 0.829852 10.8148 0.867617 10.676C1.60431 7.75886 3.25269 5.15299 5.57289 3.23748C9.26229 0.200125 14.2717 -0.686313 18.7793 0.900594ZM11.9127 8.68129H27.4155C27.6934 8.68356 27.9205 8.9009 27.937 9.17612L27.9378 9.19456V11.1353C27.9402 11.4202 27.7161 11.6542 27.4336 11.6661L27.4155 11.6666H11.9127C11.6296 11.6617 11.4022 11.4345 11.395 11.1536L11.3949 11.1353V9.21255C11.3924 8.92948 11.6138 8.69635 11.8943 8.68192L11.9127 8.68129ZM22.6747 2.76017L22.7014 2.75996L22.7282 2.7602C23.5885 2.77006 24.2812 3.46572 24.2906 4.32282L24.2907 4.34965C24.2907 4.35861 24.2906 4.36757 24.2904 4.37645C24.2755 5.25416 23.5519 5.95355 22.6742 5.93865C21.7964 5.92374 21.0971 5.2001 21.112 4.32247C21.1266 3.4626 21.8213 2.77391 22.6747 2.76017Z" fill="#4FB58B"/>
</svg>
